<?xml version="1.0" standalone="no"?>
<!DOCTYPE svg PUBLIC "-//W3C//DTD SVG 20010904//EN"
 "http://www.w3.org/TR/2001/REC-SVG-20010904/DTD/svg10.dtd">
<svg version="1.0" xmlns="http://www.w3.org/2000/svg"
 width="485.000000pt" height="485.000000pt" viewBox="0 0 485.000000 485.000000"
 preserveAspectRatio="xMidYMid meet">
<metadata>
Created by potrace 1.14, written by Peter Selinger 2001-2017
</metadata>
<g transform="translate(0.000000,485.000000) scale(0.100000,-0.100000)"
fill="#000000" stroke="none">
<path d="M1050 4842 c-8 -3 -71 -37 -140 -77 -187 -109 -720 -415 -763 -439
-20 -12 -40 -30 -43 -40 -12 -37 -8 -1089 4 -1112 9 -17 133 -94 342 -211 19
-11 123 -71 230 -133 107 -62 215 -125 240 -139 25 -14 54 -31 64 -37 17 -10
18 -29 18 -228 1 -120 -3 -221 -9 -227 -5 -5 -202 -119 -438 -255 -237 -135
-436 -251 -444 -259 -11 -11 -14 -106 -14 -557 0 -299 3 -552 7 -564 4 -13 74
-60 204 -134 108 -63 316 -182 462 -266 146 -84 276 -155 290 -159 20 -4 81
27 295 151 149 86 286 165 305 175 19 11 51 29 70 40 19 11 87 50 150 86 164
94 160 90 160 190 0 94 -16 123 -68 123 -41 0 -66 -32 -68 -86 -1 -25 -3 -47
-5 -49 -13 -12 -747 -435 -756 -435 -4 0 -8 142 -8 315 0 273 2 315 15 316 20
0 2531 0 2550 0 13 -1 15 -42 15 -316 0 -173 -2 -315 -5 -315 -3 0 -73 39
-156 88 -84 48 -254 145 -378 217 l-226 130 0 43 c0 32 -6 49 -25 67 -27 28
-45 31 -78 14 -33 -18 -37 -28 -37 -110 0 -59 4 -82 18 -97 30 -35 924 -544
955 -544 15 0 53 16 85 35 31 19 77 46 102 59 25 14 142 81 260 150 118 68
281 162 362 209 87 49 150 92 154 103 4 11 6 264 6 563 0 408 -3 547 -12 557
-9 12 -243 152 -335 202 -11 5 -128 73 -260 149 -132 76 -252 146 -267 154
-31 18 -29 -4 -30 289 0 90 4 168 8 172 5 5 205 120 444 255 239 136 441 254
448 263 9 12 12 141 12 567 l0 552 -22 20 c-20 17 -189 117 -351 207 -26 15
-98 56 -159 92 -61 35 -112 64 -114 64 -2 0 -68 38 -147 85 -80 46 -156 86
-170 89 -20 3 -96 -36 -324 -168 -164 -94 -375 -216 -470 -270 -101 -59 -175
-108 -180 -120 -11 -25 -10 -532 0 -563 7 -20 28 -33 65 -39 7 -1 24 7 38 19
l25 22 1 203 c0 111 3 202 5 202 3 0 105 -58 227 -129 121 -71 291 -169 376
-218 l155 -89 3 -42 3 -42 -1291 0 -1291 0 3 41 3 42 160 93 c88 51 189 110
225 130 36 20 133 77 217 126 83 48 154 88 157 88 3 0 6 -92 6 -203 0 -192 1
-205 20 -222 28 -26 75 -23 99 4 19 21 20 39 20 288 0 162 -4 273 -10 287 -6
13 -39 39 -72 59 -450 260 -857 491 -877 497 -14 4 -32 5 -40 2z m154 -222
c44 -26 97 -57 116 -67 245 -138 509 -297 503 -303 -20 -19 -740 -432 -753
-432 -8 -1 -49 19 -90 44 -41 24 -95 56 -120 70 -85 48 -115 65 -218 127 -57
33 -106 61 -108 61 -3 0 -28 15 -57 33 -29 18 -68 41 -89 51 -96 51 -102 41
103 160 101 58 272 157 379 219 223 130 184 126 334 37z m2816 -57 c124 -72
286 -165 360 -208 74 -43 143 -83 153 -90 18 -13 4 -22 -438 -275 -16 -10 -93
-54 -169 -98 l-139 -81 -57 32 c-31 18 -203 117 -383 222 l-327 189 53 31
c371 216 713 412 717 410 3 -1 106 -61 230 -132z m-3692 -483 c46 -28 85 -50
88 -50 3 0 17 -8 32 -19 15 -10 108 -65 207 -121 99 -57 217 -125 263 -152
l82 -49 0 -440 c0 -241 -2 -439 -5 -439 -2 0 -45 25 -96 55 -50 30 -93 55 -95
55 -3 0 -124 70 -389 225 -49 29 -111 64 -136 79 l-47 27 0 439 c0 242 3 440
7 440 3 0 43 -23 89 -50z m4294 -391 c0 -352 -2 -433 -13 -444 -14 -12 -718
-421 -742 -430 -9 -4 -12 86 -12 435 l0 441 380 219 c208 121 381 217 383 215
3 -2 4 -198 4 -436z m-905 -534 c1 -176 0 -326 -3 -333 -2 -9 -14 -6 -41 11
-21 13 -192 113 -380 222 l-343 198 0 49 c0 38 -5 54 -24 73 -29 29 -71 26
-98 -6 -24 -28 -25 -164 -3 -196 13 -18 70 -53 349 -213 17 -10 87 -50 156
-90 69 -40 134 -78 145 -84 11 -6 70 -40 131 -75 l111 -63 0 -222 0 -222 -131
-76 c-72 -42 -268 -155 -436 -252 -168 -97 -312 -184 -320 -194 -13 -16 -15
-62 -14 -313 1 -162 2 -302 3 -311 1 -21 48 -47 75 -42 11 1 28 12 39 23 19
19 20 33 20 251 l-1 231 36 -22 c21 -12 46 -27 57 -33 11 -6 168 -96 348 -201
l327 -189 0 -56 0 -55 -1285 1 c-707 1 -1288 4 -1292 7 -9 10 -7 97 3 106 28
24 747 432 752 426 4 -3 7 -108 7 -232 1 -224 1 -225 24 -244 31 -25 73 -24
97 2 17 19 18 41 19 321 0 186 -4 309 -10 321 -8 16 -330 210 -540 326 -159
87 -355 206 -356 215 0 17 -1 357 0 398 l1 36 432 248 c237 137 441 256 452
265 16 13 20 29 21 95 3 122 -24 156 -102 130 -25 -8 -41 -52 -38 -102 2 -30
-4 -34 -379 -251 -210 -122 -383 -220 -385 -218 -2 3 -4 527 -2 630 l1 30
1288 0 1287 0 2 -320z m-2717 -1516 c0 -220 -3 -398 -7 -396 -74 43 -495 286
-572 331 -57 34 -105 64 -105 68 -1 7 660 395 677 397 4 1 7 -179 7 -400z
m338 293 c103 -60 256 -148 340 -197 83 -48 152 -91 152 -94 -1 -5 -272 -163
-632 -369 l-58 -34 0 401 c0 221 3 401 6 401 3 0 89 -49 192 -108z m2379 -297
c0 -217 -2 -395 -4 -395 -1 0 -132 75 -290 167 -159 91 -297 172 -308 178 -57
33 -85 51 -85 55 0 7 674 397 681 394 3 -2 6 -181 6 -399z m540 178 c161 -92
293 -170 293 -173 0 -3 -67 -43 -148 -89 -81 -47 -234 -136 -341 -198 -107
-62 -196 -111 -199 -109 -3 4 -5 489 -3 739 l1 59 53 -31 c28 -17 184 -106
344 -198z m-3584 -548 l327 -189 0 -443 0 -442 -52 31 c-29 17 -143 83 -253
146 -110 63 -258 150 -330 191 l-130 76 -1 442 -1 443 56 -33 c32 -17 204
-117 384 -222z m3949 -190 c1 -240 -1 -438 -4 -440 -9 -10 -748 -435 -755
-435 -5 0 -8 197 -8 437 l0 438 380 221 c209 121 382 219 384 218 2 -2 3 -199
3 -439z"/>
<path d="M2298 2882 l-127 -127 -1 -55 c-1 -30 -1 -60 -1 -66 1 -7 59 46 131
116 l129 128 265 -265 266 -265 34 30 35 31 -283 283 c-156 156 -292 291 -302
300 -18 16 -24 11 -146 -110z"/>
<path d="M2048 2812 c-32 -4 -30 2 -30 -118 l1 -91 -95 -97 c-94 -96 -96 -98
-78 -118 40 -44 49 -42 112 21 l60 59 0 -301 c0 -166 0 -308 1 -314 1 -10 93
-13 424 -13 l422 0 -1 241 -1 240 -34 35 c-18 19 -36 34 -39 34 -3 0 -5 -102
-5 -227 1 -126 0 -232 -2 -238 -2 -6 -103 -9 -283 -8 -154 1 -308 2 -343 3
l-62 0 0 440 c1 298 -2 443 -9 448 -6 4 -23 6 -38 4z"/>
<path d="M2362 2660 c-1 -27 3 -30 29 -30 26 0 29 3 29 30 0 26 -4 30 -28 30
-25 0 -29 -4 -30 -30z"/>
<path d="M2450 2661 c0 -28 3 -31 31 -31 27 0 30 3 27 28 -2 21 -9 28 -30 30
-25 3 -28 0 -28 -27z"/>
<path d="M2377 2612 c-12 -2 -16 -11 -14 -30 3 -20 9 -26 30 -27 23 -2 27 2
27 25 0 29 -13 39 -43 32z"/>
<path d="M2463 2613 c-7 -3 -13 -17 -13 -32 0 -24 4 -28 28 -26 21 1 28 6 30
27 3 26 -18 40 -45 31z"/>
</g>
</svg>
